<mxfile host="app.diagrams.net" agent="Mozilla/5.0 (Windows NT 10.0; Win64; x64) AppleWebKit/537.36 (KHTML, like Gecko) Chrome/132.0.0.0 Safari/537.36 OPR/117.0.0.0 (Edition Yx GX)" version="26.2.14">
  <diagram name="Page-1" id="e7e014a7-5840-1c2e-5031-d8a46d1fe8dd">
    <mxGraphModel dx="1060" dy="1649" grid="1" gridSize="10" guides="1" tooltips="1" connect="1" arrows="1" fold="1" page="1" pageScale="1" pageWidth="1169" pageHeight="826" background="none" math="0" shadow="0">
      <root>
        <mxCell id="0" />
        <mxCell id="1" parent="0" />
        <mxCell id="2" value="Заказчик" style="swimlane;whiteSpace=wrap" parent="1" vertex="1">
          <mxGeometry x="164.5" y="128" width="280" height="570" as="geometry" />
        </mxCell>
        <mxCell id="iN7aNiKxP-10c6p9kHCY-42" style="edgeStyle=orthogonalEdgeStyle;rounded=0;orthogonalLoop=1;jettySize=auto;html=1;entryX=0.5;entryY=0;entryDx=0;entryDy=0;" edge="1" parent="2" source="5" target="iN7aNiKxP-10c6p9kHCY-41">
          <mxGeometry relative="1" as="geometry" />
        </mxCell>
        <mxCell id="5" value="" style="ellipse;shape=startState;fillColor=#000000;strokeColor=#ff0000;" parent="2" vertex="1">
          <mxGeometry x="100" y="22" width="30" height="30" as="geometry" />
        </mxCell>
        <mxCell id="iN7aNiKxP-10c6p9kHCY-41" value="Техническое задание" style="rounded=0;whiteSpace=wrap;html=1;" vertex="1" parent="2">
          <mxGeometry x="55" y="72" width="120" height="60" as="geometry" />
        </mxCell>
        <mxCell id="iN7aNiKxP-10c6p9kHCY-73" style="edgeStyle=orthogonalEdgeStyle;rounded=0;orthogonalLoop=1;jettySize=auto;html=1;entryX=1;entryY=0.5;entryDx=0;entryDy=0;" edge="1" parent="2" source="iN7aNiKxP-10c6p9kHCY-70" target="iN7aNiKxP-10c6p9kHCY-72">
          <mxGeometry relative="1" as="geometry" />
        </mxCell>
        <mxCell id="iN7aNiKxP-10c6p9kHCY-74" value="Готовый дом" style="edgeLabel;html=1;align=center;verticalAlign=middle;resizable=0;points=[];rotation=90;" vertex="1" connectable="0" parent="iN7aNiKxP-10c6p9kHCY-73">
          <mxGeometry x="0.4286" y="1" relative="1" as="geometry">
            <mxPoint x="20" y="-1" as="offset" />
          </mxGeometry>
        </mxCell>
        <mxCell id="iN7aNiKxP-10c6p9kHCY-70" value="Ключи" style="rounded=0;whiteSpace=wrap;html=1;" vertex="1" parent="2">
          <mxGeometry x="185.5" y="452" width="64.5" height="60" as="geometry" />
        </mxCell>
        <mxCell id="iN7aNiKxP-10c6p9kHCY-72" value="" style="ellipse;html=1;shape=endState;fillColor=#000000;strokeColor=#ff0000;" vertex="1" parent="2">
          <mxGeometry x="85.5" y="467" width="30" height="30" as="geometry" />
        </mxCell>
        <mxCell id="3" value="Проектироващик" style="swimlane;whiteSpace=wrap" parent="1" vertex="1">
          <mxGeometry x="444.5" y="128" width="280" height="570" as="geometry" />
        </mxCell>
        <mxCell id="iN7aNiKxP-10c6p9kHCY-49" style="edgeStyle=orthogonalEdgeStyle;rounded=0;orthogonalLoop=1;jettySize=auto;html=1;entryX=0.5;entryY=0;entryDx=0;entryDy=0;" edge="1" parent="3" source="iN7aNiKxP-10c6p9kHCY-43" target="iN7aNiKxP-10c6p9kHCY-48">
          <mxGeometry relative="1" as="geometry" />
        </mxCell>
        <mxCell id="iN7aNiKxP-10c6p9kHCY-43" value="Проектная документация" style="rounded=0;whiteSpace=wrap;html=1;" vertex="1" parent="3">
          <mxGeometry x="35.5" y="72" width="120" height="60" as="geometry" />
        </mxCell>
        <mxCell id="iN7aNiKxP-10c6p9kHCY-48" value="3D-модель" style="rounded=0;whiteSpace=wrap;html=1;" vertex="1" parent="3">
          <mxGeometry x="35.5" y="172" width="120" height="60" as="geometry" />
        </mxCell>
        <mxCell id="iN7aNiKxP-10c6p9kHCY-67" value="Гарантия" style="rounded=0;whiteSpace=wrap;html=1;" vertex="1" parent="3">
          <mxGeometry x="35.5" y="452" width="120" height="60" as="geometry" />
        </mxCell>
        <mxCell id="4" value="Подрядчик" style="swimlane;whiteSpace=wrap" parent="1" vertex="1">
          <mxGeometry x="724.5" y="128" width="280" height="570" as="geometry" />
        </mxCell>
        <mxCell id="iN7aNiKxP-10c6p9kHCY-53" style="edgeStyle=orthogonalEdgeStyle;rounded=0;orthogonalLoop=1;jettySize=auto;html=1;entryX=0.5;entryY=0;entryDx=0;entryDy=0;" edge="1" parent="4" source="iN7aNiKxP-10c6p9kHCY-50" target="iN7aNiKxP-10c6p9kHCY-52">
          <mxGeometry relative="1" as="geometry" />
        </mxCell>
        <mxCell id="iN7aNiKxP-10c6p9kHCY-50" value="Подготовка участка" style="rounded=0;whiteSpace=wrap;html=1;" vertex="1" parent="4">
          <mxGeometry x="35.5" y="172" width="120" height="60" as="geometry" />
        </mxCell>
        <mxCell id="iN7aNiKxP-10c6p9kHCY-55" style="edgeStyle=orthogonalEdgeStyle;rounded=0;orthogonalLoop=1;jettySize=auto;html=1;entryX=0.5;entryY=0;entryDx=0;entryDy=0;" edge="1" parent="4" source="iN7aNiKxP-10c6p9kHCY-52" target="iN7aNiKxP-10c6p9kHCY-54">
          <mxGeometry relative="1" as="geometry" />
        </mxCell>
        <mxCell id="iN7aNiKxP-10c6p9kHCY-52" value="Фундамент" style="rounded=0;whiteSpace=wrap;html=1;" vertex="1" parent="4">
          <mxGeometry x="35.5" y="255" width="120" height="60" as="geometry" />
        </mxCell>
        <mxCell id="iN7aNiKxP-10c6p9kHCY-57" style="edgeStyle=orthogonalEdgeStyle;rounded=0;orthogonalLoop=1;jettySize=auto;html=1;entryX=0.5;entryY=0;entryDx=0;entryDy=0;" edge="1" parent="4" source="iN7aNiKxP-10c6p9kHCY-54" target="iN7aNiKxP-10c6p9kHCY-56">
          <mxGeometry relative="1" as="geometry" />
        </mxCell>
        <mxCell id="iN7aNiKxP-10c6p9kHCY-54" value="Коробка здания" style="rounded=0;whiteSpace=wrap;html=1;" vertex="1" parent="4">
          <mxGeometry x="35.5" y="342" width="120" height="60" as="geometry" />
        </mxCell>
        <mxCell id="iN7aNiKxP-10c6p9kHCY-59" style="edgeStyle=orthogonalEdgeStyle;rounded=0;orthogonalLoop=1;jettySize=auto;html=1;entryX=0;entryY=0.5;entryDx=0;entryDy=0;" edge="1" parent="4" source="iN7aNiKxP-10c6p9kHCY-56" target="iN7aNiKxP-10c6p9kHCY-58">
          <mxGeometry relative="1" as="geometry" />
        </mxCell>
        <mxCell id="iN7aNiKxP-10c6p9kHCY-56" value="Отделочные работы" style="rounded=0;whiteSpace=wrap;html=1;" vertex="1" parent="4">
          <mxGeometry x="35.5" y="422" width="120" height="60" as="geometry" />
        </mxCell>
        <mxCell id="iN7aNiKxP-10c6p9kHCY-58" value="Акты К0-2КС-3" style="rounded=0;whiteSpace=wrap;html=1;" vertex="1" parent="4">
          <mxGeometry x="185.5" y="422" width="84.5" height="60" as="geometry" />
        </mxCell>
        <mxCell id="iN7aNiKxP-10c6p9kHCY-44" style="edgeStyle=orthogonalEdgeStyle;rounded=0;orthogonalLoop=1;jettySize=auto;html=1;entryX=0;entryY=0.5;entryDx=0;entryDy=0;" edge="1" parent="1" source="iN7aNiKxP-10c6p9kHCY-41" target="iN7aNiKxP-10c6p9kHCY-43">
          <mxGeometry relative="1" as="geometry" />
        </mxCell>
        <mxCell id="iN7aNiKxP-10c6p9kHCY-47" value="Надзорные органы" style="swimlane;whiteSpace=wrap;startSize=23;" vertex="1" parent="1">
          <mxGeometry x="1004.5" y="128" width="280" height="570" as="geometry" />
        </mxCell>
        <mxCell id="iN7aNiKxP-10c6p9kHCY-64" style="edgeStyle=orthogonalEdgeStyle;rounded=0;orthogonalLoop=1;jettySize=auto;html=1;entryX=0;entryY=0.5;entryDx=0;entryDy=0;" edge="1" parent="iN7aNiKxP-10c6p9kHCY-47" source="iN7aNiKxP-10c6p9kHCY-60" target="iN7aNiKxP-10c6p9kHCY-63">
          <mxGeometry relative="1" as="geometry" />
        </mxCell>
        <mxCell id="iN7aNiKxP-10c6p9kHCY-65" value="Заключение" style="edgeLabel;html=1;align=center;verticalAlign=middle;resizable=0;points=[];" vertex="1" connectable="0" parent="iN7aNiKxP-10c6p9kHCY-64">
          <mxGeometry x="-0.1126" y="1" relative="1" as="geometry">
            <mxPoint x="11" y="-14" as="offset" />
          </mxGeometry>
        </mxCell>
        <mxCell id="iN7aNiKxP-10c6p9kHCY-60" value="Проверка по ГОСТ" style="rounded=0;whiteSpace=wrap;html=1;" vertex="1" parent="iN7aNiKxP-10c6p9kHCY-47">
          <mxGeometry x="35.5" y="422" width="84.5" height="60" as="geometry" />
        </mxCell>
        <mxCell id="iN7aNiKxP-10c6p9kHCY-63" value="" style="ellipse;html=1;shape=endState;fillColor=#000000;strokeColor=#ff0000;" vertex="1" parent="iN7aNiKxP-10c6p9kHCY-47">
          <mxGeometry x="195.5" y="437" width="30" height="30" as="geometry" />
        </mxCell>
        <mxCell id="iN7aNiKxP-10c6p9kHCY-51" style="edgeStyle=orthogonalEdgeStyle;rounded=0;orthogonalLoop=1;jettySize=auto;html=1;entryX=0;entryY=0.5;entryDx=0;entryDy=0;" edge="1" parent="1" source="iN7aNiKxP-10c6p9kHCY-48" target="iN7aNiKxP-10c6p9kHCY-50">
          <mxGeometry relative="1" as="geometry" />
        </mxCell>
        <mxCell id="iN7aNiKxP-10c6p9kHCY-61" style="edgeStyle=orthogonalEdgeStyle;rounded=0;orthogonalLoop=1;jettySize=auto;html=1;entryX=0;entryY=0.5;entryDx=0;entryDy=0;" edge="1" parent="1" source="iN7aNiKxP-10c6p9kHCY-58" target="iN7aNiKxP-10c6p9kHCY-60">
          <mxGeometry relative="1" as="geometry" />
        </mxCell>
        <mxCell id="iN7aNiKxP-10c6p9kHCY-69" style="edgeStyle=orthogonalEdgeStyle;rounded=0;orthogonalLoop=1;jettySize=auto;html=1;entryX=1;entryY=0.5;entryDx=0;entryDy=0;" edge="1" parent="1" source="iN7aNiKxP-10c6p9kHCY-58" target="iN7aNiKxP-10c6p9kHCY-67">
          <mxGeometry relative="1" as="geometry">
            <Array as="points">
              <mxPoint x="952" y="640" />
              <mxPoint x="680" y="640" />
              <mxPoint x="680" y="610" />
            </Array>
          </mxGeometry>
        </mxCell>
        <mxCell id="iN7aNiKxP-10c6p9kHCY-71" style="edgeStyle=orthogonalEdgeStyle;rounded=0;orthogonalLoop=1;jettySize=auto;html=1;entryX=1;entryY=0.5;entryDx=0;entryDy=0;" edge="1" parent="1" source="iN7aNiKxP-10c6p9kHCY-67" target="iN7aNiKxP-10c6p9kHCY-70">
          <mxGeometry relative="1" as="geometry" />
        </mxCell>
      </root>
    </mxGraphModel>
  </diagram>
</mxfile>
